<?xml version="1.0" standalone="no"?>
<!DOCTYPE svg PUBLIC "-//W3C//DTD SVG 20010904//EN"
 "http://www.w3.org/TR/2001/REC-SVG-20010904/DTD/svg10.dtd">
<svg version="1.0" xmlns="http://www.w3.org/2000/svg"
 width="512.000000pt" height="512.000000pt" viewBox="0 0 512.000000 512.000000"
 preserveAspectRatio="xMidYMid meet">

<g transform="translate(0.000000,512.000000) scale(0.100000,-0.100000)"
fill="#FFF7FF" stroke="#FFF7FF">
<path d="M2335 4615 c-326 -58 -633 -218 -939 -491 -121 -107 -197 -198 -242
-289 -36 -74 -57 -166 -48 -218 11 -68 15 -78 45 -111 43 -49 116 -65 187 -42
74 25 183 106 302 225 l105 105 -58 8 c-89 12 -143 59 -167 147 -15 55 4 119
59 200 77 113 174 179 297 202 102 19 141 12 694 -129 413 -106 504 -117 685
-87 81 13 284 63 328 80 26 11 23 -50 -7 -127 -73 -195 -361 -694 -498 -864
-41 -50 -107 -140 -148 -199 -41 -59 -79 -109 -85 -111 -6 -3 -94 2 -196 10
-344 28 -539 -16 -806 -182 -148 -92 -283 -203 -283 -233 0 -4 27 3 59 16 160
62 285 79 531 71 240 -7 356 -23 354 -48 -2 -20 -124 -181 -252 -330 -53 -62
-269 -286 -479 -499 -211 -212 -383 -391 -383 -398 0 -24 51 -9 102 31 109 86
840 835 1149 1178 695 772 914 1044 1260 1563 150 225 209 341 209 408 0 27
-4 49 -9 49 -5 0 -49 -15 -97 -34 -49 -19 -125 -42 -168 -51 -142 -32 -353
-10 -691 70 -317 76 -380 86 -560 90 -119 3 -194 0 -250 -10z"/>
<path d="M3889 3815 c-38 -20 -64 -49 -145 -162 -168 -234 -373 -492 -713
-893 -462 -547 -571 -669 -807 -900 -320 -313 -499 -469 -739 -645 -379 -277
-505 -386 -505 -440 0 -30 9 -31 60 -5 68 35 208 70 279 70 118 0 398 -61 775
-170 496 -142 743 -187 974 -177 145 6 240 29 342 83 59 31 643 455 697 506
32 30 29 46 -12 54 -30 5 -41 1 -87 -36 -164 -130 -399 -187 -733 -177 -271 8
-386 30 -1064 207 -247 64 -353 84 -511 92 l-44 3 244 221 c411 371 634 588
863 841 251 276 222 258 414 254 251 -6 444 59 683 229 63 45 152 102 198 127
84 46 99 67 66 93 -12 11 -39 7 -157 -23 -181 -46 -293 -59 -490 -55 l-159 3
311 413 c323 430 363 488 339 503 -19 13 -28 11 -79 -16z"/>
</g>
</svg>
